<?xml version="1.0" standalone="no"?> <!DOCTYPE svg PUBLIC "-//W3C//DTD SVG 1.0//EN" "http://www.w3.org/TR/2001/REC-SVG-20010904/DTD/svg10.dtd" > <svg xmlns="http://www.w3.org/2000/svg" width="100%" height="100%">
<defs >
<font horiz-adv-x="630" ><font-face
    font-family="Geometos"
    units-per-em="1000"
    panose-1="0 0 0 0 0 0 0 0 0 0"
    ascent="750"
    descent="-250"
    alphabetic="0" />
<missing-glyph horiz-adv-x="500" />
<glyph unicode=" " glyph-name="space" horiz-adv-x="342" />
<glyph unicode="!" glyph-name="exclam" horiz-adv-x="293" d="M196 213H96L71 731H221L196 213ZM216 0H76V149H216V0Z" />
<glyph unicode="&quot;" glyph-name="quotedbl" horiz-adv-x="444" d="M164 524H63L46 742H180L164 524ZM375 524H274L258 742H392L375 524Z" />
<glyph unicode="#" glyph-name="numbersign" horiz-adv-x="856" d="M690 183H555L483 0H345L417 183H288L217 0H79L150 183H18L68 312H201L246 427H114L164 556H296L365 733H503L434 556H562L632 733H770L700 556H836L786 427H650L605 312H740L690 183ZM512 427H384L339
312H467L512 427Z" />
<glyph unicode="$" glyph-name="dollar" horiz-adv-x="680" d="M259 824H398V744Q428 740 454 733T504 714T553 688T604 654L526 544Q474 580 426 599T325 618Q307 618 284 614T241 599T207 574T193 536Q193 514 209 499T250 474T305 457T363 443Q384 438 412
433T471 419T532 395T585 357T623 299T638 215Q638 163 621 123T572 55T496 12T398 -8V-89H259V0Q226 6 199 15T146 38T96 67T46 101L122 213Q177 175 235 148T358 120Q392 120 418 128T462 150T489 181T498 216Q498 238 485 253T449 279T396 296T332 309Q310 313
281 318T221 333T160 358T106 397T68 453T53 530Q53 582 70 619T117 682T183 721T259 742V824Z" />
<glyph unicode="%" glyph-name="percent" horiz-adv-x="960" d="M220 328Q179 328 145 343T86 386T47 450T33 532Q33 577 47 614T86 679T145 721T220 737Q260 737 294 722T354 679T393 615T407 532Q407 488 393 451T353 387T294 344T220 328ZM735 -15Q694 -15
660 0T601 43T562 107T548 190Q548 234 562 271T601 336T660 378T735 394Q775 394 809 379T868 336T907 272T921 190Q921 146 907 109T868 44T809 1T735 -15ZM322 0L756 733H642L208 0H322ZM735 288Q713 288 701 276T682 247T674 214T672 190Q672 185 673 169T681
135T699 105T735 91Q751 91 763 100T783 125T794 157T798 190Q798 204 795 221T785 253T765 278T735 288ZM220 630Q198 630 186 618T167 589T159 556T157 532Q157 527 158 511T166 478T184 448T220 434Q236 434 248 443T268 468T279 500T283 532Q283 546 280 563T270
595T250 620T220 630Z" />
<glyph unicode="&amp;" glyph-name="ampersand" horiz-adv-x="685" d="M552 -14L458 82Q424 53 393 35T336 7T288 -7T254 -12Q211 -14 173 -2T105 34T56 91T31 166Q24 226 47 271T116 354Q127 363 144 375T174 396Q139 438 124 484T115 578Q120 620 141 654T197
711Q232 734 274 741T358 738Q399 727 432 699T482 633Q500 595 499 554T479 473Q463 441 434 417T367 370L455 279Q491 330 508 361T526 393L647 334Q646 332 626 295T563 199Q559 194 556 190T550 181L657 67L552 -14ZM245 303Q218 288 198 271Q194 268 188 261T175
243T166 217T165 181Q168 153 191 133T248 111Q272 110 291 116T326 131T354 150T375 169L245 303ZM242 569Q239 540 252 510T284 459Q298 467 313 478T340 500Q371 532 371 575Q371 601 353 616T312 633T267 619T242 569Z" />
<glyph unicode="&apos;" glyph-name="quotesingle" horiz-adv-x="230" d="M164 524H63L46 742H180L164 524Z" />
<glyph unicode="(" glyph-name="parenleft" horiz-adv-x="395" d="M305 699Q245 636 215 552T185 366Q185 264 215 180T305 33Q318 20 331 9T360 -14L281 -120Q260 -105 241 -89T204 -53Q126 29 86 133T45 366Q45 496 85 599T204 785Q221 804 240 820T281 852L360
747Q331 727 305 699Z" />
<glyph unicode=")" glyph-name="parenright" horiz-adv-x="359" d="M65 699Q39 727 10 747L89 852Q110 837 129 821T166 785Q244 703 284 600T325 366Q325 237 285 133T166 -53Q149 -72 130 -88T89 -120L10 -14Q25 -3 38 8T65 33Q125 96 155 180T185 366Q185 468
155 552T65 699Z" />
<glyph unicode="*" glyph-name="asterisk" horiz-adv-x="435" d="M216 473L150 380L71 433L144 526L31 565L60 650L170 611V730H263V611L372 650L401 565L289 526L362 433L282 380L216 473Z" />
<glyph unicode="+" glyph-name="plus" horiz-adv-x="567" d="M532 313H348V126H219V313H35V436H219V623H348V436H532V313Z" />
<glyph unicode="," glyph-name="comma" horiz-adv-x="210" d="M172 78Q179 49 175 18T154 -41T112 -90T50 -119L33 -82Q65 -72 81 -53T102 -8Q72 -9 50 11T26 62Q24 93 45 115T96 139Q124 140 144 124T172 78Z" />
<glyph unicode="-" glyph-name="hyphen" horiz-adv-x="409" d="M365 315H38V438H365V315Z" />
<glyph unicode="." glyph-name="period" horiz-adv-x="192" d="M172 66Q172 35 151 14T98 -8Q68 -8 47 13T25 66Q25 96 46 117T98 139Q129 139 150 118T172 66Z" />
<glyph unicode="/" glyph-name="slash" horiz-adv-x="542" d="M-25 -138L420 834H550L105 -138H-25Z" />
<glyph unicode="0" glyph-name="zero" horiz-adv-x="747" d="M372 -15Q299 -15 237 15T130 101Q88 153 67 220T45 365Q45 449 69 518T136 638T239 716T372 744Q443 744 503 716T606 637T674 517T699 365Q699 289 677 221T612 101Q567 44 505 15T372 -15ZM372 613Q340
613 307 599T248 554T204 477T187 365Q187 321 198 277T231 197T289 139T372 116Q405 116 438 132T497 179T540 257T556 365Q556 415 543 466T504 549Q454 613 372 613Z" />
<glyph unicode="1" glyph-name="one" horiz-adv-x="444" d="M365 733V0H225V492L118 390L22 492L276 733H365Z" />
<glyph unicode="2" glyph-name="two" horiz-adv-x="642" d="M578 124V0H72V139Q91 155 123 182T193 241T267 303T332 357Q365 384 384 405T414 446T426 482T429 516Q429 546 419 565T393 597T356 614T315 619Q281 619 259 603T222 565T202 525T194 502V503L59
538Q66 565 84 600T134 668T210 722T315 744Q380 744 428 724T507 671T554 598T569 516Q569 474 559 439T528 373T479 313T414 255Q400 244 382 228T342 195T298 159T254 124H578Z" />
<glyph unicode="3" glyph-name="three" horiz-adv-x="600" d="M431 368Q451 361 472 349T510 318T539 269T550 198Q550 188 549 174T543 142T530 107T507 71Q486 45 460 29T405 3T348 -10T295 -14Q231 -14 186 7T112 60T65 127T41 188L175 227Q176 223 180 204T196
164T232 126T295 109Q353 109 381 135T410 198Q410 236 398 259T363 295T306 312T226 319V427Q269 429 303 432T361 447T397 479T410 536Q410 572 382 598T295 624Q255 624 232 607T197 569T180 530T175 507L41 546Q48 572 65 607T111 673T186 726T295 748Q365
748 414 729T493 679T536 611T550 536Q550 495 540 468T512 421T473 389T431 368Z" />
<glyph unicode="4" glyph-name="four" horiz-adv-x="672" d="M633 286V162H544V0H404V162H53V282L438 733H544V286H633ZM404 497L232 286H404V497Z" />
<glyph unicode="5" glyph-name="five" horiz-adv-x="616" d="M313 489Q432 489 498 422T565 233Q565 179 545 133T484 51Q448 19 401 3T300 -14Q247 -14 208 -4T137 24T82 63T37 107L109 207Q109 207 122 192T160 160T220 128T300 112Q323 112 345 120T386 144T415
182T426 233Q426 296 395 335T312 377Q281 378 257 373T215 359T183 338T160 316L54 373L121 733H519V608H234L209 454Q232 472 259 480T313 489Z" />
<glyph unicode="6" glyph-name="six" horiz-adv-x="649" d="M342 498Q399 501 445 483T525 431T576 349T595 243Q595 208 589 180T574 130T552 92T528 63Q503 38 475 23T418 0T364 -11T319 -14Q274 -14 233 -2T159 33T101 87T64 157Q44 220 47 277T77 398Q86 417
110 456T167 542T236 640T303 733H476Q456 706 433 675T387 611T341 546T298 486Q306 490 317 493T342 498ZM323 111Q351 111 375 121T418 149T447 191T458 242Q458 269 448 293T419 335T376 363T323 374Q295 374 271 364T228 335T200 293T189 242Q189 215 199
191T228 150T270 122T323 111Z" />
<glyph unicode="7" glyph-name="seven" horiz-adv-x="601" d="M565 733V595L231 0H71L421 608H42V733H565Z" />
<glyph unicode="8" glyph-name="eight" horiz-adv-x="621" d="M453 387Q477 381 500 366T540 327T567 276T578 218Q578 159 557 115T499 43T413 0T308 -14Q252 -14 204 0T118 42T60 115T39 218Q39 248 50 276T78 326T118 365T164 387Q148 394 131 408T100 443T76
488T67 537Q67 582 86 619T137 684T214 727T308 743Q358 743 402 728T479 685T531 620T550 537Q550 511 543 487T522 442T492 408T453 387ZM207 522Q207 500 215 484T237 457T269 441T308 435Q350 435 379 457T409 522Q409 549 401 567T379 596T347 613T308 618Q288
618 270 613T237 596T215 566T207 522ZM308 111Q334 111 357 116T398 133T426 165T437 218Q437 243 427 263T399 297T358 319T308 327Q282 327 259 320T219 299T191 265T180 218Q180 186 190 166T218 133T259 116T308 111Z" />
<glyph unicode="9" glyph-name="nine" horiz-adv-x="657" d="M311 235Q254 232 208 252T128 309T76 392T58 490Q58 525 64 553T80 603T101 641T125 670Q150 695 178 710T235 733T289 744T334 747Q379 747 420 735T494 700T552 646T589 576Q609 513 606 456T576
335Q567 316 543 277T486 191T417 93T350 0H177Q197 27 220 58T266 122T312 187T355 247Q348 244 337 240T311 235ZM330 624Q302 624 278 616T235 592T207 551T196 491Q196 464 206 440T235 398T277 370T330 359Q358 359 382 369T425 398T454 440T465 491Q465 526
455 551T426 592T383 616T330 624Z" />
<glyph unicode=":" glyph-name="colon" horiz-adv-x="192" d="M172 66Q172 35 151 14T98 -8Q67 -8 46 13T25 66Q25 96 46 117T98 139Q129 139 150 118T172 66ZM172 348Q172 318 151 297T98 275Q67 275 46 296T25 348Q25 379 46 400T98 422Q129 422 150 401T172 348Z" />
<glyph unicode=";" glyph-name="semicolon" horiz-adv-x="197" d="M172 78Q165 107 145 123T96 139Q65 137 45 115T26 62Q27 32 49 12T102 -8Q98 -33 82 -52T33 -82L50 -119Q85 -111 111 -90T154 -42T174 17T172 78ZM173 348Q173 318 152 297T99 275Q68 275 47
296T26 348Q26 379 47 400T99 422Q130 422 151 401T173 348Z" />
<glyph unicode="&lt;" glyph-name="less" horiz-adv-x="553" d="M498 636V494L196 363L498 233V90L53 299V427L498 636Z" />
<glyph unicode="=" glyph-name="equal" horiz-adv-x="562" d="M506 423H51V546H506V423ZM506 181H51V304H506V181Z" />
<glyph unicode="&gt;" glyph-name="greater" horiz-adv-x="553" d="M498 427V299L53 90V233L355 363L53 494V636L498 427Z" />
<glyph unicode="?" glyph-name="question" horiz-adv-x="578" d="M472 677Q498 649 512 614T527 541Q527 492 513 458T476 400T429 361T382 333Q365 324 351 316T330 298Q313 274 309 250T307 212H167Q165 244 174 289T217 380Q238 409 264 425T317 456Q336 466
349 474T371 492T383 512T387 541Q387 547 384 559T370 582T336 602T273 611Q240 611 216 602T176 577T149 543T133 506L0 549Q6 567 22 600T69 667T150 726T273 751Q313 751 345 744T401 727T443 703T472 677ZM309 0H169V149H309V0Z" />
<glyph unicode="@" glyph-name="at" horiz-adv-x="847" d="M700 661Q806 572 806 405Q806 236 727 176Q702 157 672 152T609 155Q586 161 569 174T538 204Q515 181 482 167T407 153Q317 153 266 208T215 361Q215 407 229 445T268 510T329 552T408 567Q440 567
462 560T502 540V563H603V314Q603 304 604 293T609 272T619 255T636 244Q671 236 688 279T706 405Q706 465 688 512T635 588Q599 618 546 634T420 651Q348 651 296 626T211 561T161 471T144 369Q144 321 154 269T192 173T271 101T401 73Q456 73 490 80T544 95T570
111T578 120L654 54Q643 42 624 30T574 9T502 -7T401 -14Q317 -14 251 12T138 87T68 208T43 369Q43 445 68 512T140 630Q192 687 263 716T420 745Q601 745 700 661ZM502 388Q502 402 499 418T486 447T458 470T408 479Q381 479 364 467T338 437T325 399T321 361Q321
326 329 304T350 269T378 250T407 245Q425 245 442 249T472 265T493 295T502 341V388Z" />
<glyph unicode="A" glyph-name="A" horiz-adv-x="774" d="M6 0L380 731H394L768 0H616L559 115H214L158 0H6ZM282 237H491L387 458L282 237Z" />
<glyph unicode="B" glyph-name="B" horiz-adv-x="695" d="M616 529Q616 507 607 482T583 436T545 401T497 385Q524 383 550 370T598 333T632 280T646 216Q646 156 628 115T579 48T507 11T418 0H80V732H402Q446 732 485 724T553 693T599 631T616 529ZM418 124Q436
124 452 132T480 155T499 187T506 223Q506 260 479 285T403 310H220V124H418ZM220 435H392Q413 435 428 443T454 464T470 493T476 526Q476 542 470 557T454 583T431 601T402 608H220V435Z" />
<glyph unicode="C" glyph-name="C" horiz-adv-x="778" d="M750 180Q726 136 691 101T614 40T522 0T419 -14Q341 -14 272 16T152 97T70 218T40 365Q40 443 70 512T151 632T272 714T419 744Q472 744 521 730T613 691T691 630T750 551L619 498Q603 522 582 543T534
580T479 605T419 614Q369 614 326 594T250 539T199 460T180 365Q180 315 199 270T250 191T325 137T419 116Q450 116 479 125T534 150T581 187T619 233L750 180Z" />
<glyph unicode="D" glyph-name="D" horiz-adv-x="786" d="M369 0H80V732H369Q526 732 627 640Q681 591 708 522T736 366Q736 279 709 210T627 91Q578 46 513 23T369 0ZM220 124H369Q408 124 448 133T520 168T574 242T595 365Q595 441 574 488T520 562T447 597T369
606H220V124Z" />
<glyph unicode="E" glyph-name="E" horiz-adv-x="683" d="M219 608V425H573V298H219V126H618V0H80V732H618V608H219Z" />
<glyph unicode="F" glyph-name="F" horiz-adv-x="652" d="M220 607V427H573V298H220V0H80V732H618V607H220Z" />
<glyph unicode="G" glyph-name="G" horiz-adv-x="828" d="M790 400Q789 379 789 361Q788 345 788 330T787 306Q781 237 750 178T669 77T555 10T419 -14Q341 -14 272 16T152 97T70 218T40 365Q40 443 70 512T151 633T272 715T419 745Q518 745 600 699T734 576L614
503Q582 550 531 582T419 614Q369 614 326 594T250 539T198 460T179 365Q179 315 198 270T249 191T325 137T419 116Q457 116 492 127T556 160T606 210T638 274H368V400H790Z" />
<glyph unicode="H" glyph-name="H" horiz-adv-x="800" d="M720 732V0H581V291H219V0H80V732H219V416H581V732H720Z" />
<glyph unicode="I" glyph-name="I" horiz-adv-x="340" d="M240 0H100V731H240V0Z" />
<glyph unicode="J" glyph-name="J" horiz-adv-x="609" d="M532 731V272Q532 208 513 155T458 65T372 7T261 -14Q175 -14 113 26T18 137L145 194Q151 180 161 166T185 140T217 121T261 113Q304 113 329 130T369 172T387 224T392 272V731H532Z" />
<glyph unicode="K" glyph-name="K" horiz-adv-x="735" d="M527 0L220 333V0H80V732H220V360L511 731H683L382 353L712 0H527Z" />
<glyph unicode="L" glyph-name="L" horiz-adv-x="615" d="M607 124V0H80V732H220V124H607Z" />
<glyph unicode="M" glyph-name="M" horiz-adv-x="898" d="M817 731V0H677V370L448 95L220 370V0H80V731H89L448 309L808 731H817Z" />
<glyph unicode="N" glyph-name="N" horiz-adv-x="796" d="M701 0L219 435V0H80V731H95L576 289V731H716V0H701Z" />
<glyph unicode="O" glyph-name="O" horiz-adv-x="846" d="M422 -14Q344 -14 275 16T155 97T73 218T43 366Q43 444 73 513T154 634T275 716T422 746Q501 746 570 716T690 635T772 514T802 366Q802 287 772 218T691 98T570 16T422 -14ZM422 615Q372 615 329 595T253
540T201 461T182 366Q182 316 201 271T252 192T328 137T422 116Q472 116 515 136T591 191T643 271T662 366Q662 415 643 460T592 540T516 594T422 615Z" />
<glyph unicode="P" glyph-name="P" horiz-adv-x="678" d="M406 732Q460 732 507 712T590 656T645 574T666 472Q666 418 648 372T595 292T507 238T383 218H220V0H80V732H406ZM406 344Q437 344 460 354T497 383T519 424T526 472Q526 497 517 521T491 565T449 596T391
608H220V344H406Z" />
<glyph unicode="Q" glyph-name="Q" horiz-adv-x="827" d="M803 128V-1H439Q337 -1 263 28T139 108T67 227T43 372Q43 449 72 517T152 635T270 715T415 745Q492 745 560 716T678 636T758 517T788 372Q788 339 781 304T756 236T713 175T647 128H803ZM182 372Q182
324 200 281T250 206T324 154T415 135Q463 135 505 154T579 205T629 281T648 372Q648 420 630 463T580 539T506 590T415 609Q367 609 325 590T251 539T201 464T182 372Z" />
<glyph unicode="R" glyph-name="R" horiz-adv-x="720" d="M219 0H80V732H412Q468 732 514 714T594 662T645 582T664 480Q664 397 623 335T512 246Q605 124 695 0H528Q484 57 442 115T358 233H219V0ZM219 357H412Q431 357 451 364T488 387T514 426T525 480Q525
496 521 518T505 560T471 594T412 608H219V357Z" />
<glyph unicode="S" glyph-name="S" horiz-adv-x="680" d="M51 96L127 208Q182 170 240 143T363 115Q397 115 423 123T467 145T494 176T503 211Q503 233 490 248T454 274T401 291T337 304Q315 308 286 313T226 328T165 353T111 392T73 448T58 525Q58 589 84 631T150
698T240 733T336 743Q382 743 418 737T485 720T545 691T609 649L531 539Q479 575 431 594T330 613Q312 613 289 609T246 594T212 569T198 531Q198 509 214 494T255 469T310 452T368 438Q389 433 417 428T476 414T537 390T590 352T628 294T643 210Q643 153 623 111T566
42T478 0T365 -14Q308 -14 265 -6T185 17T117 52T51 96Z" />
<glyph unicode="T" glyph-name="T" horiz-adv-x="622" d="M606 608H397V0H257V608H47V732H606V608Z" />
<glyph unicode="U" glyph-name="U" horiz-adv-x="788" d="M394 -13Q323 -13 265 9T166 71T103 168T80 295V731H220V295Q220 240 238 204T282 147T339 118T394 110Q418 110 448 118T505 147T550 204T568 295V731H708V295Q708 225 686 168T623 71T524 9T394 -13Z" />
<glyph unicode="V" glyph-name="V" horiz-adv-x="721" d="M716 731L368 0H360L13 731H167L364 307L561 731H716Z" />
<glyph unicode="W" glyph-name="W" horiz-adv-x="991" d="M981 731L708 0H694L496 426L296 -1H283L13 731H162L305 330L491 731H500L686 329L832 731H981Z" />
<glyph unicode="X" glyph-name="X" horiz-adv-x="754" d="M296 362L18 731H193L383 468L573 731H747L470 362L742 0H567L383 255L199 0H24L296 362Z" />
<glyph unicode="Y" glyph-name="Y" horiz-adv-x="709" d="M704 731Q676 685 640 626T565 506T490 385T425 277V0H285V277Q220 391 147 504T8 731H171Q216 656 263 576T355 421Q377 456 401 496T449 576T496 656T541 731H704Z" />
<glyph unicode="Z" glyph-name="Z" horiz-adv-x="702" d="M675 714L267 130H661V0H21V16L430 602H52V731H675V714Z" />
<glyph unicode="[" glyph-name="bracketleft" horiz-adv-x="390" d="M363 -158H92V899H363V774H232V-33H363V-158Z" />
<glyph unicode="\" glyph-name="backslash" horiz-adv-x="493" d="M1 834H134L494 -138H361L1 834Z" />
<glyph unicode="]" glyph-name="bracketright" horiz-adv-x="336" d="M0 -158V-33H131V774H0V899H271V-158H0Z" />
<glyph unicode="^" glyph-name="asciicircum" horiz-adv-x="605" d="M409 373L298 611L186 373H45L225 738H371L551 373H409Z" />
<glyph unicode="_" glyph-name="underscore" horiz-adv-x="668" d="M607 -123H53V0H607V-123Z" />
<glyph unicode="`" glyph-name="grave" horiz-adv-x="284" d="M255 771H157L23 872L138 922L255 771Z" />
<glyph unicode="a" glyph-name="a" horiz-adv-x="774" d="M6 0L380 731H394L768 0H616L559 115H214L158 0H6ZM282 237H491L387 458L282 237Z" />
<glyph unicode="b" glyph-name="b" horiz-adv-x="695" d="M616 529Q616 507 607 482T583 436T545 401T497 385Q524 383 550 370T598 333T632 280T646 216Q646 156 628 115T579 48T507 11T418 0H80V732H402Q446 732 485 724T553 693T599 631T616 529ZM418 124Q436
124 452 132T480 155T499 187T506 223Q506 260 479 285T403 310H220V124H418ZM220 435H392Q413 435 428 443T454 464T470 493T476 526Q476 542 470 557T454 583T431 601T402 608H220V435Z" />
<glyph unicode="c" glyph-name="c" horiz-adv-x="778" d="M750 180Q726 136 691 101T614 40T522 0T419 -14Q341 -14 272 16T152 97T70 218T40 365Q40 443 70 512T151 632T272 714T419 744Q472 744 521 730T613 691T691 630T750 551L619 498Q603 522 582 543T534
580T479 605T419 614Q369 614 326 594T250 539T199 460T180 365Q180 315 199 270T250 191T325 137T419 116Q450 116 479 125T534 150T581 187T619 233L750 180Z" />
<glyph unicode="d" glyph-name="d" horiz-adv-x="786" d="M369 0H80V732H369Q526 732 627 640Q681 591 708 522T736 366Q736 279 709 210T627 91Q578 46 513 23T369 0ZM220 124H369Q408 124 448 133T520 168T574 242T595 365Q595 441 574 488T520 562T447 597T369
606H220V124Z" />
<glyph unicode="e" glyph-name="e" horiz-adv-x="683" d="M219 608V425H573V298H219V126H618V0H80V732H618V608H219Z" />
<glyph unicode="f" glyph-name="f" horiz-adv-x="652" d="M220 607V427H573V298H220V0H80V732H618V607H220Z" />
<glyph unicode="g" glyph-name="g" horiz-adv-x="828" d="M790 400Q789 379 789 361Q788 345 788 330T787 306Q781 237 750 178T669 77T555 10T419 -14Q341 -14 272 16T152 97T70 218T40 365Q40 443 70 512T151 633T272 715T419 745Q518 745 600 699T734 576L614
503Q582 550 531 582T419 614Q369 614 326 594T250 539T198 460T179 365Q179 315 198 270T249 191T325 137T419 116Q457 116 492 127T556 160T606 210T638 274H368V400H790Z" />
<glyph unicode="h" glyph-name="h" horiz-adv-x="800" d="M720 732V0H581V291H219V0H80V732H219V416H581V732H720Z" />
<glyph unicode="i" glyph-name="i" horiz-adv-x="340" d="M240 0H100V731H240V0Z" />
<glyph unicode="j" glyph-name="j" horiz-adv-x="609" d="M532 731V272Q532 208 513 155T458 65T372 7T261 -14Q175 -14 113 26T18 137L145 194Q151 180 161 166T185 140T217 121T261 113Q304 113 329 130T369 172T387 224T392 272V731H532Z" />
<glyph unicode="k" glyph-name="k" horiz-adv-x="735" d="M527 0L220 333V0H80V732H220V360L511 731H683L382 353L712 0H527Z" />
<glyph unicode="l" glyph-name="l" horiz-adv-x="615" d="M607 124V0H80V732H220V124H607Z" />
<glyph unicode="m" glyph-name="m" horiz-adv-x="898" d="M817 731V0H677V370L448 95L220 370V0H80V731H89L448 309L808 731H817Z" />
<glyph unicode="n" glyph-name="n" horiz-adv-x="796" d="M701 0L219 435V0H80V731H95L576 289V731H716V0H701Z" />
<glyph unicode="o" glyph-name="o" horiz-adv-x="846" d="M422 -14Q344 -14 275 16T155 97T73 218T43 366Q43 444 73 513T154 634T275 716T422 746Q501 746 570 716T690 635T772 514T802 366Q802 287 772 218T691 98T570 16T422 -14ZM422 615Q372 615 329 595T253
540T201 461T182 366Q182 316 201 271T252 192T328 137T422 116Q472 116 515 136T591 191T643 271T662 366Q662 415 643 460T592 540T516 594T422 615Z" />
<glyph unicode="p" glyph-name="p" horiz-adv-x="678" d="M406 732Q460 732 507 712T590 656T645 574T666 472Q666 418 648 372T595 292T507 238T383 218H220V0H80V732H406ZM406 344Q437 344 460 354T497 383T519 424T526 472Q526 497 517 521T491 565T449 596T391
608H220V344H406Z" />
<glyph unicode="q" glyph-name="q" horiz-adv-x="827" d="M803 128V-1H439Q337 -1 263 28T139 108T67 227T43 372Q43 449 72 517T152 635T270 715T415 745Q492 745 560 716T678 636T758 517T788 372Q788 339 781 304T756 236T713 175T647 128H803ZM182 372Q182
324 200 281T250 206T324 154T415 135Q463 135 505 154T579 205T629 281T648 372Q648 420 630 463T580 539T506 590T415 609Q367 609 325 590T251 539T201 464T182 372Z" />
<glyph unicode="r" glyph-name="r" horiz-adv-x="720" d="M219 0H80V732H412Q468 732 514 714T594 662T645 582T664 480Q664 397 623 335T512 246Q605 124 695 0H528Q484 57 442 115T358 233H219V0ZM219 357H412Q431 357 451 364T488 387T514 426T525 480Q525
496 521 518T505 560T471 594T412 608H219V357Z" />
<glyph unicode="s" glyph-name="s" horiz-adv-x="680" d="M51 96L127 208Q182 170 240 143T363 115Q397 115 423 123T467 145T494 176T503 211Q503 233 490 248T454 274T401 291T337 304Q315 308 286 313T226 328T165 353T111 392T73 448T58 525Q58 589 84 631T150
698T240 733T336 743Q382 743 418 737T485 720T545 691T609 649L531 539Q479 575 431 594T330 613Q312 613 289 609T246 594T212 569T198 531Q198 509 214 494T255 469T310 452T368 438Q389 433 417 428T476 414T537 390T590 352T628 294T643 210Q643 153 623 111T566
42T478 0T365 -14Q308 -14 265 -6T185 17T117 52T51 96Z" />
<glyph unicode="t" glyph-name="t" horiz-adv-x="622" d="M606 608H397V0H257V608H47V732H606V608Z" />
<glyph unicode="u" glyph-name="u" horiz-adv-x="788" d="M394 -13Q323 -13 265 9T166 71T103 168T80 295V731H220V295Q220 240 238 204T282 147T339 118T394 110Q418 110 448 118T505 147T550 204T568 295V731H708V295Q708 225 686 168T623 71T524 9T394 -13Z" />
<glyph unicode="v" glyph-name="v" horiz-adv-x="721" d="M716 731L368 0H360L13 731H167L364 307L561 731H716Z" />
<glyph unicode="w" glyph-name="w" horiz-adv-x="991" d="M981 731L708 0H694L496 426L296 -1H283L13 731H162L305 330L491 731H500L686 329L832 731H981Z" />
<glyph unicode="x" glyph-name="x" horiz-adv-x="754" d="M296 362L18 731H193L383 468L573 731H747L470 362L742 0H567L383 255L199 0H24L296 362Z" />
<glyph unicode="y" glyph-name="y" horiz-adv-x="709" d="M704 731Q676 685 640 626T565 506T490 385T425 277V0H285V277Q220 391 147 504T8 731H171Q216 656 263 576T355 421Q377 456 401 496T449 576T496 656T541 731H704Z" />
<glyph unicode="z" glyph-name="z" horiz-adv-x="702" d="M675 714L267 130H661V0H21V16L430 602H52V731H675V714Z" />
<glyph unicode="{" glyph-name="braceleft" horiz-adv-x="412" d="M269 12Q285 -7 306 -17T346 -32T380 -38T394 -39V-173H393Q386 -173 361 -171T303 -159T233 -130T167 -74Q144 -47 133 -16T116 47T111 108T110 159Q110 194 110 218T107 260T89 286T49 301V439Q74
442 87 454T105 484T110 528T110 581Q110 602 110 631T116 692T132 755T167 814Q197 850 234 870T305 899T363 910T394 912V778Q394 778 380 777T347 772T306 757T269 728Q259 716 254 697T247 658T244 617T244 584Q245 567 245 537T242 475T226 413T193 370Q215
346 225 320T239 267T243 212T244 156Q244 142 244 123T246 83T254 43T269 12Z" />
<glyph unicode="|" glyph-name="bar" horiz-adv-x="286" d="M193 -106H92V836H193V-106Z" />
<glyph unicode="}" glyph-name="braceright" horiz-adv-x="412" d="M142 12Q152 24 157 43T164 82T167 122T167 156Q169 184 169 212T171 267T185 320T218 370Q196 384 185 413T170 474T165 537T167 584Q167 597 167 617T165 657T157 697T142 728Q126 746 105
756T65 771T31 777T17 778V912Q23 912 47 910T105 899T176 870T244 814Q266 787 278 756T295 692T300 631T301 581Q301 553 301 528T306 485T323 454T362 439V301Q335 296 322 287T305 260T300 219T301 159Q301 138 301 109T295 48T278 -15T244 -74Q214 -110 178
-129T109 -159T50 -171T18 -173H17V-39Q17 -39 31 -38T64 -32T105 -17T142 12Z" />
<glyph unicode="~" glyph-name="asciitilde" horiz-adv-x="574" d="M369 326H367Q329 327 301 339T250 366Q232 377 217 384T184 392Q170 392 160 385T143 370T133 354T129 344L44 370Q48 386 59 405T87 441T128 469T184 481H185Q220 481 246 469T296 443Q315
432 331 424T368 415Q373 415 387 418T417 441Q427 454 431 464Q434 469 436 475L521 447Q515 430 503 409T473 370T428 339T369 326Z" />
</font>
</defs>
</svg>
